<svg width="651" height="648" viewBox="0 0 651 648" fill="none" xmlns="http://www.w3.org/2000/svg">
<rect width="147" height="147" rx="49" fill="#1B4EB4"/>
<rect x="168" width="147" height="147" rx="49" fill="#4286FE"/>
<rect x="336" width="147" height="147" rx="49" fill="#4287FF"/>
<rect x="504" width="147" height="147" rx="49" fill="#1B4EB4"/>
<rect y="167" width="147" height="147" rx="49" fill="#4286FE"/>
<rect x="168" y="167" width="147" height="147" rx="49" fill="#06C100"/>
<rect x="336" y="167" width="147" height="147" rx="49" fill="#1B4EB4"/>
<rect x="504" y="167" width="147" height="147" rx="49" fill="#4286FE"/>
<rect y="334" width="147" height="147" rx="49" fill="#4287FF"/>
<rect x="168" y="334" width="147" height="147" rx="49" fill="#4287FF"/>
<rect x="336" y="334" width="147" height="147" rx="49" fill="#49CE5C"/>
<rect x="504" y="334" width="147" height="147" rx="49" fill="#1B4EB4"/>
<rect y="501" width="147" height="147" rx="49" fill="#1B4EB4"/>
<rect x="168" y="501" width="147" height="147" rx="49" fill="#4287FF"/>
<rect x="336" y="501" width="147" height="147" rx="49" fill="#4286FE"/>
<rect x="504" y="501" width="147" height="147" rx="49" fill="#1B4EB4"/>
</svg>
